<?xml version="1.0" standalone="no"?>
<!DOCTYPE svg PUBLIC "-//W3C//DTD SVG 20010904//EN"
 "http://www.w3.org/TR/2001/REC-SVG-20010904/DTD/svg10.dtd">
<svg version="1.0" xmlns="http://www.w3.org/2000/svg"
 width="512.000000pt" height="512.000000pt" viewBox="0 0 512.000000 512.000000"
 preserveAspectRatio="xMidYMid meet">
<metadata>
Created by potrace 1.16, written by Peter Selinger 2001-2019
</metadata>
<g transform="translate(0.000000,512.000000) scale(0.100000,-0.100000)"
fill="#000000" stroke="none">
<path d="M1550 4701 c-57 -18 -110 -53 -158 -106 -59 -64 -82 -125 -82 -216 0
-82 -26 -111 -122 -134 -150 -37 -245 -100 -294 -197 -13 -26 -26 -48 -29 -48
-2 0 -39 11 -82 24 -171 53 -232 67 -269 60 -30 -5 -38 -3 -51 16 -16 22 -20
23 -122 17 -144 -9 -334 -26 -340 -32 -13 -14 22 -13 213 5 115 11 212 17 217
14 17 -10 9 -32 -14 -38 -12 -3 -41 -6 -64 -6 -40 0 -43 -2 -43 -27 0 -16 -4
-33 -8 -39 -4 -6 -56 -15 -117 -20 l-110 -9 -6 -65 c-4 -36 -7 -117 -8 -181
l-1 -116 -32 -11 -33 -10 36 1 36 2 7 89 c3 49 6 131 6 181 l0 92 73 7 c168
16 166 15 173 51 l6 33 76 6 c43 4 89 9 104 12 l28 6 0 -260 0 -259 -47 9
c-96 19 -430 -33 -481 -74 -14 -12 -13 -66 3 -71 5 -2 132 9 280 25 149 15
347 31 441 34 l171 7 21 -31 c27 -37 27 -40 0 -45 l-23 -4 23 -2 c24 -1 59
-28 49 -37 -2 -3 -42 0 -88 6 -116 14 -204 13 -217 -3 -13 -16 -42 -186 -44
-260 -1 -29 4 -63 11 -76 l13 -23 138 7 138 7 -11 -38 -10 -39 -185 -3 -184
-3 6 28 c15 60 15 75 -1 26 -18 -61 4 -56 -283 -74 -102 -6 -203 -15 -225 -19
l-40 -8 45 -1 c25 0 124 6 220 14 96 8 193 15 215 15 l40 0 -1 -192 -2 -193 7
187 c3 103 10 190 15 195 4 4 89 10 188 11 171 4 180 3 174 -15 -31 -101 -79
-280 -88 -329 l-11 -61 -67 5 c-57 4 -76 1 -121 -20 -158 -73 -238 -197 -239
-370 0 -57 0 -57 -27 -53 -16 3 -86 9 -158 15 -72 6 -142 13 -158 16 -15 3
-27 1 -27 -4 0 -5 69 -14 153 -21 83 -7 168 -14 188 -17 l36 -5 6 83 c10 134
29 182 100 253 91 90 182 127 271 111 30 -6 36 -11 36 -32 0 -22 -3 -24 -22
-17 -13 4 -46 8 -74 7 -88 -1 -184 -75 -233 -179 -26 -55 -44 -167 -35 -218
l6 -40 -63 7 c-161 15 -361 27 -367 21 -15 -15 31 -23 206 -34 241 -16 254
-19 264 -56 4 -16 6 -31 3 -33 -4 -5 -406 26 -447 34 -26 5 -28 3 -28 -29 0
-42 -25 -36 290 -68 201 -20 216 -23 233 -46 29 -37 100 -73 156 -80 l50 -6
-24 -19 c-24 -19 -29 -19 -208 -3 -100 9 -213 18 -252 20 l-70 4 57 -9 c86
-14 344 -40 395 -40 l44 0 -17 -31 c-8 -17 -18 -57 -21 -88 -2 -31 -9 -67 -14
-81 -12 -33 -68 -335 -75 -408 -10 -90 -4 -94 281 -208 l246 -97 81 12 c67 10
83 10 94 -1 10 -10 15 -63 20 -188 6 -157 9 -177 27 -198 11 -12 26 -22 34
-22 25 0 13 -31 -77 -206 -60 -116 -85 -174 -75 -174 16 0 121 190 162 293
l27 69 35 -6 c109 -19 199 -28 237 -23 l44 5 15 -51 c8 -28 15 -57 15 -65 0
-8 -20 -57 -45 -110 -25 -52 -45 -99 -45 -103 0 -5 31 -9 69 -9 l68 0 22 65
c36 113 34 127 -88 478 -23 66 -41 137 -41 160 0 43 29 104 53 112 6 2 76 5
154 8 l142 4 25 -107 c54 -224 106 -505 106 -569 -1 -36 -7 -84 -15 -106 -18
-49 -18 -45 -2 -45 24 0 39 51 47 160 7 82 17 131 50 225 22 66 58 192 79 279
39 164 50 178 52 63 0 -34 4 -95 8 -136 6 -60 11 -77 30 -92 44 -36 195 -17
242 30 22 23 29 43 44 144 10 65 21 115 25 110 3 -4 19 -42 35 -83 15 -41 60
-140 100 -220 83 -167 100 -210 119 -300 12 -53 15 -58 15 -29 1 56 -34 158
-111 324 -39 82 -88 203 -110 268 -34 102 -38 125 -33 172 12 92 10 91 170 69
l138 -20 24 -69 c29 -84 73 -267 103 -425 34 -174 21 -276 -55 -453 -7 -16 -3
-18 36 -15 l44 3 21 110 c12 61 26 135 32 165 l10 55 -1 -70 c-1 -38 -1 -114
1 -167 2 -83 5 -98 18 -98 15 0 16 11 10 98 -12 169 31 390 141 722 l48 145
155 -3 c85 -2 156 -5 159 -7 2 -2 3 -22 3 -45 -1 -59 -44 -217 -124 -455 -87
-259 -92 -299 -50 -389 23 -50 36 -66 52 -66 19 0 19 2 -10 56 -49 93 -44 144
40 395 39 115 86 263 105 330 19 67 39 127 45 134 5 7 33 15 62 18 28 4 84 16
123 28 l72 21 389 -41 c441 -47 411 -44 398 -31 -13 13 -219 40 -541 72 l-231
22 -6 29 c-3 16 -6 42 -6 58 0 27 1 28 31 17 26 -9 33 -8 41 5 18 33 84 87
105 87 12 0 73 -6 135 -14 62 -8 147 -17 188 -21 41 -4 84 -9 95 -11 17 -4 17
-3 4 5 -15 10 -347 61 -395 61 -35 0 -36 14 -4 55 16 20 32 54 35 74 4 20 13
56 22 80 12 32 14 62 9 117 -6 67 -5 74 11 74 10 0 108 -16 218 -35 159 -28
521 -85 541 -85 2 0 4 112 4 250 l0 249 -45 64 c-55 79 -113 133 -174 160 -65
30 -169 29 -234 -3 -109 -52 -198 -170 -217 -286 -5 -31 -12 -59 -14 -62 -3
-2 -30 -1 -60 2 -44 6 -55 11 -60 29 -12 44 -7 54 24 54 25 0 30 -4 31 -26 1
-20 3 -17 11 14 22 89 61 212 79 247 10 20 43 62 72 92 56 56 83 105 74 130
-6 15 -128 32 -147 21 -28 -17 0 -28 68 -26 48 2 72 -1 72 -9 0 -23 -30 -66
-75 -110 -64 -62 -83 -97 -120 -214 -30 -97 -32 -101 -62 -104 -29 -3 -31 -1
-37 40 -4 24 -24 104 -46 178 -44 149 -48 179 -24 215 11 17 14 36 9 63 l-6
39 122 6 c67 4 254 7 416 7 228 0 293 -3 293 -12 0 -18 40 -81 47 -75 3 3 -4
19 -16 35 -27 38 -26 50 2 63 15 6 -56 8 -218 4 -132 -3 -332 -6 -445 -6
l-205 -1 -14 56 c-7 31 -12 59 -10 61 2 2 69 7 148 11 l145 7 105 100 c58 55
141 129 184 165 42 36 76 70 74 76 -5 15 -141 24 -372 25 -211 1 -203 3 -327
-79 -31 -21 -59 -35 -62 -32 -15 14 -4 53 17 62 12 5 69 30 127 56 102 45 109
47 245 56 77 5 250 7 385 4 176 -3 230 -2 190 5 -30 5 -200 8 -380 7 l-325 -3
-100 -46 c-55 -26 -114 -50 -131 -53 l-31 -7 -7 63 c-10 91 -35 208 -52 240
-18 35 -60 74 -96 89 -36 15 -35 27 8 83 47 62 74 123 74 171 0 54 -6 61 -86
104 -41 23 -78 51 -92 71 -22 32 -23 42 -20 180 3 139 2 147 -24 201 -28 62
-87 127 -140 156 -26 14 -56 18 -133 18 -90 0 -105 -3 -153 -28 -116 -61 -198
-191 -213 -338 -4 -44 -14 -88 -21 -96 -7 -9 -36 -31 -65 -50 -29 -18 -57 -42
-63 -52 -16 -31 -12 -83 10 -116 27 -40 25 -67 -6 -96 -60 -56 -71 -137 -29
-226 28 -61 19 -74 -27 -39 -18 13 -65 37 -105 53 -58 23 -70 31 -63 43 16 25
11 60 -15 119 l-26 57 31 59 c26 49 31 69 29 115 -2 37 5 74 20 115 60 160
-19 347 -183 433 -44 23 -63 27 -141 27 -103 0 -142 -15 -213 -84 -56 -55 -87
-119 -107 -226 -20 -110 -24 -117 -95 -186 -68 -65 -78 -99 -59 -203 10 -60 9
-69 -6 -86 -10 -11 -21 -20 -25 -20 -9 0 -130 120 -145 145 -7 11 -15 32 -19
48 -6 25 -4 27 23 27 44 0 66 26 112 130 31 71 44 114 49 170 3 41 5 78 4 81
-2 3 -19 3 -38 1 -42 -5 -49 -28 -11 -38 45 -11 44 -74 -2 -149 -13 -22 -22
-31 -19 -20 6 20 2 21 -84 20 -49 0 -90 -3 -90 -6 0 -4 17 -25 38 -47 43 -46
83 -60 106 -36 24 23 20 29 -22 29 -20 0 -48 9 -62 18 -25 18 -25 18 35 11 33
-3 62 -11 63 -15 2 -5 8 -7 13 -4 13 9 -30 -87 -49 -109 -39 -43 -187 2 -277
85 -44 41 -62 76 -69 137 -3 32 -16 58 -16 33 0 -21 -42 -7 -63 20 -21 29 -40
109 -26 109 5 0 9 -10 9 -21 0 -18 2 -19 15 -9 12 10 15 9 15 -6 1 -25 36 -71
47 -61 4 5 0 14 -10 21 -21 16 -23 66 -2 66 8 0 20 -9 27 -20 19 -29 25 -25
43 30 11 33 28 59 50 76 19 14 53 50 76 81 26 33 64 67 95 85 68 38 78 51 70
91 l-6 32 24 -35 c13 -19 38 -46 56 -59 37 -26 65 -85 75 -152 7 -46 7 -47
-31 -65 -49 -25 -58 -47 -14 -34 18 5 37 8 42 7 16 -3 29 51 31 133 2 88 -24
158 -76 208 -109 105 -335 177 -447 143z m325 -121 c10 -11 16 -20 13 -20 -3
0 -13 9 -23 20 -10 11 -16 20 -13 20 3 0 13 -9 23 -20z m-386 -29 c-51 -46
-48 -54 33 -82 29 -10 46 -19 38 -19 -8 -1 1 -8 20 -15 19 -7 27 -14 17 -14
-19 -1 -152 63 -161 78 -5 8 76 91 90 91 4 0 -13 -18 -37 -39z m495 -60 c4 -5
-3 -7 -14 -4 -23 6 -26 13 -6 13 8 0 17 -4 20 -9z m-129 -21 c-3 -5 -12 -10
-19 -10 -7 0 -55 -29 -106 -65 -102 -71 -165 -95 -244 -95 -46 0 -136 30 -136
45 0 3 15 -2 33 -12 42 -23 167 -22 221 1 21 9 67 36 102 61 35 25 83 55 106
65 50 23 51 23 43 10z m-260 -91 c-22 -10 -56 -18 -75 -18 -29 1 -25 3 22 13
32 7 61 15 64 19 4 4 12 7 18 6 6 0 -7 -9 -29 -20z m-178 -15 c-3 -3 -12 -4
-19 -1 -8 3 -5 6 6 6 11 1 17 -2 13 -5z m2023 -18 c0 -2 -18 -15 -40 -30 -22
-14 -40 -24 -40 -22 0 5 71 56 77 56 2 0 3 -2 3 -4z m-750 -167 c0 -11 24 -46
54 -78 51 -56 76 -106 76 -156 0 -15 -7 -20 -31 -21 -17 -1 -38 -9 -47 -18
-15 -15 -13 -16 30 -10 l47 7 -11 -37 c-10 -32 -15 -36 -45 -36 -18 0 -33 -4
-33 -10 0 -5 16 -10 35 -10 34 0 35 -1 35 -39 0 -46 -15 -82 -74 -176 -41 -66
-45 -70 -84 -73 -50 -4 -106 23 -169 81 -53 49 -73 84 -82 146 -5 41 -9 46
-34 49 -36 4 -59 49 -55 105 2 31 8 43 22 45 23 5 35 -8 42 -44 6 -32 24 -55
30 -39 3 6 17 32 32 60 22 41 39 56 97 88 87 47 155 112 155 147 0 14 -18 50
-40 80 l-41 55 46 -48 c25 -27 45 -58 45 -68z m660 108 c0 -2 -12 -14 -27 -28
l-28 -24 24 28 c23 25 31 32 31 24z m-1955 -47 c42 -16 143 -14 190 5 l40 16
-23 -20 c-52 -45 -204 -35 -252 16 -14 15 -16 20 -5 11 11 -9 34 -22 50 -28z
m-114 12 c-6 -11 -44 -31 -86 -47 -183 -66 -298 -191 -299 -325 0 -54 28 -129
55 -145 5 -4 -1 16 -15 44 -33 65 -34 129 -2 196 26 56 86 122 143 158 44 28
187 82 178 67 -3 -5 -46 -30 -95 -56 -63 -32 -104 -62 -138 -99 -50 -55 -84
-113 -75 -128 3 -4 14 10 25 33 37 75 130 138 262 179 87 27 97 21 14 -9 -184
-66 -247 -148 -233 -305 7 -67 6 -68 -48 -108 -20 -16 -46 -45 -56 -66 l-20
-37 -87 13 c-48 7 -91 18 -95 25 -8 12 -1 358 7 367 2 2 34 -3 71 -11 l68 -14
2 -54 c2 -30 6 -71 10 -90 6 -27 8 -14 13 60 10 182 87 268 291 325 52 15 98
31 104 36 14 14 17 11 6 -9z m2099 -26 c0 -2 -7 -7 -16 -10 -8 -3 -12 -2 -9 4
6 10 25 14 25 6z m-70 -40 c0 -2 -8 -10 -17 -17 -16 -13 -17 -12 -4 4 13 16
21 21 21 13z m413 -84 c35 -48 61 -92 54 -92 -2 0 -18 21 -34 48 -17 26 -51
67 -75 91 -36 37 -38 41 -11 22 17 -12 47 -43 66 -69z m-2363 63 c-14 -8 -29
-14 -35 -14 -5 0 1 6 15 14 14 8 30 14 35 14 6 0 -1 -6 -15 -14z m1994 -10
c-27 -14 -51 -25 -54 -25 -12 1 76 50 89 50 8 0 -8 -11 -35 -25z m134 -15 c19
0 32 -9 44 -30 9 -16 39 -45 67 -65 42 -31 53 -45 66 -88 8 -28 15 -62 15 -76
l1 -26 13 24 c7 13 11 32 8 43 -4 18 13 48 29 48 5 0 9 -7 9 -16 0 -9 -5 -12
-12 -8 -9 5 -9 2 1 -9 26 -33 -10 -127 -49 -127 -15 0 -20 -7 -20 -27 -1 -88
-108 -199 -211 -218 -41 -8 -48 -3 -110 80 -69 92 -81 131 -73 243 9 131 27
170 98 216 31 20 59 43 62 51 5 13 8 13 21 0 8 -8 26 -15 41 -15z m312 -14 c0
-26 -6 -18 -14 19 -5 22 -4 26 4 15 5 -8 10 -24 10 -34z m-121 -73 c31 -28 53
-72 30 -57 -5 3 -7 9 -4 14 3 4 -10 19 -28 33 -17 13 -47 46 -65 73 l-34 49
34 -40 c18 -22 48 -54 67 -72z m-1100 81 c-15 -19 -94 -74 -106 -74 -4 0 16
16 44 35 28 19 54 39 58 45 3 5 9 10 12 10 3 0 0 -7 -8 -16z m228 -57 c8 -16
12 -31 10 -34 -3 -2 -8 5 -12 17 -4 12 -21 38 -38 58 -29 35 -30 35 -3 12 15
-14 35 -38 43 -53z m471 13 c-7 -10 -14 -17 -17 -15 -4 4 18 35 25 35 2 0 -1
-9 -8 -20z m529 -37 c-3 -10 -5 -2 -5 17 0 19 2 27 5 18 2 -10 2 -26 0 -35z
m-2527 32 c0 -2 -19 -14 -42 -26 -65 -33 -110 -70 -123 -103 -8 -19 -11 -58
-7 -112 6 -98 3 -103 -79 -145 -56 -28 -99 -72 -99 -102 0 -9 -5 -19 -11 -23
-17 -10 -3 45 20 76 9 14 44 39 77 57 89 47 87 45 81 137 -8 119 12 154 123
215 59 33 60 33 60 26z m-606 -66 c5 -4 9 -96 10 -203 l1 -195 -35 -6 c-19 -3
-47 -8 -62 -11 l-28 -6 0 230 0 230 53 -15 c28 -9 56 -19 61 -24z m811 1 c-4
-12 -40 -48 -82 -81 -41 -32 -72 -59 -68 -59 3 0 -2 -11 -11 -24 -8 -14 -27
-55 -40 -93 -15 -39 -23 -53 -20 -34 4 19 17 59 31 88 13 29 22 53 19 53 -8 0
-137 -105 -153 -123 -7 -9 -16 -15 -20 -12 -4 2 -27 -29 -51 -70 -24 -41 -46
-72 -48 -70 -3 2 17 41 44 86 26 45 53 105 61 133 l13 51 -6 -49 c-3 -27 -8
-56 -11 -65 -4 -9 23 11 58 45 35 33 107 93 160 132 52 40 102 83 109 97 16
29 25 26 15 -5z m2314 -32 c-1 -35 -2 -38 -8 -18 -7 23 -4 60 5 60 2 0 4 -19
3 -42z m-1309 22 c-8 -5 -19 -10 -25 -10 -5 0 -3 5 5 10 8 5 20 10 25 10 6 0
3 -5 -5 -10z m-73 -26 c-3 -3 -12 -4 -19 -1 -8 3 -5 6 6 6 11 1 17 -2 13 -5z
m-809 -141 c15 -27 88 -78 124 -87 l27 -6 -6 -79 c-4 -53 -2 -80 6 -85 7 -5
11 1 11 16 0 19 5 16 26 -19 15 -26 36 -94 54 -175 55 -249 35 -274 -61 -79
-38 75 -110 198 -162 274 l-94 137 13 58 c8 31 14 80 15 107 l1 50 16 -45 c9
-25 23 -55 30 -67z m1497 -8 c-37 -26 -55 -49 -64 -79 -5 -17 -10 -23 -10 -13
-2 29 27 75 57 91 34 19 43 20 17 1z m-840 -15 c-4 -6 -30 -25 -58 -44 -88
-57 -98 -73 -113 -183 l-13 -98 5 84 c6 103 21 141 70 175 115 79 118 81 109
66z m1492 -37 c-3 -10 -5 -4 -5 12 0 17 2 24 5 18 2 -7 2 -21 0 -30z m222
-164 c-1 -20 -2 -19 -10 9 -7 22 -29 47 -69 79 -51 40 -90 81 -90 97 0 2 38
-33 85 -78 63 -61 85 -89 84 -107z m-801 136 c-6 -14 -13 -23 -15 -21 -5 5 15
46 22 46 3 0 -1 -11 -7 -25z m-1638 -62 c25 -37 76 -112 114 -167 85 -125 169
-296 197 -401 19 -69 22 -109 23 -300 1 -211 0 -225 -28 -335 -25 -104 -29
-140 -37 -370 -10 -328 -29 -406 -119 -504 -47 -51 -44 -59 6 -21 69 53 116
197 130 400 l7 95 33 0 c28 0 35 -4 41 -27 3 -16 2 -158 -4 -318 -6 -159 -7
-320 -2 -356 4 -36 33 -156 63 -266 30 -111 58 -217 61 -237 l7 -36 -217 0
c-205 0 -423 13 -483 29 -27 7 -27 7 -30 112 -3 112 5 195 39 384 27 149 22
188 -27 217 -38 22 -39 25 -23 83 18 71 16 70 59 31 22 -20 45 -37 50 -37 6
-1 14 -2 19 -3 6 0 16 -7 22 -13 17 -17 44 -16 81 3 33 17 39 14 67 -35 5 -8
13 -11 19 -7 13 8 71 146 88 211 26 95 11 184 -35 223 -11 9 -29 40 -39 67
-18 50 -18 50 -59 47 -39 -2 -44 1 -101 65 -33 38 -79 88 -102 113 -67 73 -72
83 -64 135 3 26 10 43 14 38 4 -4 22 -50 40 -101 18 -51 35 -91 37 -88 3 3
-12 59 -33 126 l-38 122 40 252 c34 216 39 273 39 411 -1 144 -3 166 -24 218
-13 32 -36 74 -53 93 -36 41 -91 55 -116 30 -15 -15 -15 -16 4 -16 39 0 85
-77 104 -178 21 -106 -3 -354 -58 -602 -5 -20 -7 65 -6 190 2 211 2 216 -6 80
-11 -215 -14 -430 -6 -470 4 -20 3 -47 -3 -62 -10 -27 -12 -28 -93 -29 -50 0
-105 -7 -138 -18 l-55 -18 140 5 140 4 75 -88 c41 -49 139 -157 217 -241 l143
-151 -53 -43 c-87 -71 -146 -131 -179 -182 l-31 -48 -44 43 c-226 219 -473
506 -519 603 -13 28 -24 65 -24 83 0 60 39 226 105 449 36 120 88 296 116 392
53 183 71 228 94 238 8 3 12 9 9 14 -11 18 47 8 66 -11 24 -24 27 -14 3 12
-25 28 -67 23 -97 -13 -14 -17 -26 -35 -26 -41 0 -6 -3 -9 -6 -5 -3 3 2 22 12
43 23 48 117 94 208 101 60 5 63 5 89 -27 15 -17 50 -75 78 -127 l51 -94 42 7
c22 4 50 8 62 9 11 1 26 5 33 9 25 16 22 -3 -14 -74 l-36 -72 24 -27 c35 -38
100 -137 134 -206 38 -75 61 -146 79 -238 l14 -72 -5 66 c-10 124 -67 262
-170 409 l-52 76 34 69 c34 66 34 69 17 82 -12 9 -30 12 -49 8 -69 -14 -115
-17 -115 -9 0 5 -27 58 -60 118 l-60 108 29 33 c16 18 37 47 47 64 10 17 21
31 24 31 3 0 25 -30 50 -67z m2289 -36 c39 -46 60 -91 47 -104 -3 -4 -6 3 -6
15 0 11 -21 44 -46 74 -44 51 -64 86 -64 111 1 7 7 -2 14 -18 7 -17 32 -52 55
-78z m-1556 25 c-64 -58 -77 -83 -69 -136 4 -35 4 -37 -5 -16 -20 47 -4 90 58
152 31 31 59 55 62 52 3 -3 -18 -26 -46 -52z m883 -27 c-4 -19 -25 -58 -47
-87 -47 -62 -56 -90 -40 -124 16 -35 13 -44 -4 -14 -22 39 -18 64 20 116 46
63 65 105 66 146 1 19 3 25 6 15 3 -11 2 -34 -1 -52z m852 30 c-3 -3 -9 2 -12
12 -6 14 -5 15 5 6 7 -7 10 -15 7 -18z m-2094 -81 c49 -46 93 -81 97 -79 11 7
86 -81 98 -115 13 -40 6 -38 -15 3 -21 40 -65 99 -71 94 -2 -3 11 -28 28 -56
39 -63 30 -82 -23 -46 -19 13 -48 27 -64 30 l-29 7 30 -27 c17 -14 24 -24 18
-20 -23 11 -14 -23 41 -163 81 -207 90 -242 90 -362 0 -86 -6 -126 -32 -225
-35 -132 -42 -241 -17 -285 23 -41 18 -86 -12 -120 -26 -28 -34 -30 -127 -37
l-99 -6 6 81 c3 44 20 141 36 214 106 468 110 541 46 778 -14 52 -37 145 -51
205 -17 77 -34 123 -54 153 -17 23 -30 50 -30 58 0 29 43 3 134 -82z m1166 30
c0 -12 -13 -38 -29 -58 -27 -34 -42 -67 -54 -121 -4 -15 -5 -13 -6 7 -1 38 15
76 50 116 31 35 33 54 15 107 -5 13 -2 11 8 -5 8 -14 15 -35 16 -46z m-547
-164 l96 -105 -37 -22 c-63 -39 -211 -24 -256 25 -14 16 -13 23 15 78 22 46
31 81 36 142 l6 82 22 -48 c13 -26 66 -94 118 -152z m1484 168 c-3 -7 -5 -2
-5 12 0 14 2 19 5 13 2 -7 2 -19 0 -25z m-772 -160 c-8 -18 -12 -24 -8 -13 3
11 9 58 12 105 l6 85 3 -72 c2 -49 -2 -82 -13 -105z m392 1 c15 -62 15 -68 0
-90 -49 -70 -255 -80 -265 -13 -2 11 8 30 23 44 18 17 25 34 25 62 0 29 4 38
18 38 25 0 113 53 147 90 l30 32 3 -49 c1 -26 10 -78 19 -114z m-2949 16 c-2
-1 -31 -5 -65 -7 l-63 -4 0 48 c0 52 -5 48 85 66 l40 8 3 -54 c2 -30 2 -55 0
-57z m138 100 l62 -7 6 -36 c10 -64 14 -62 -89 -62 l-95 0 0 61 0 61 28 -6
c15 -3 55 -8 88 -11z m1953 -95 c0 -8 -9 8 -19 35 -11 28 -20 52 -19 55 2 11
38 -76 38 -90z m1208 58 c-3 -7 -5 -2 -5 12 0 14 2 19 5 13 2 -7 2 -19 0 -25z
m-209 -235 l-3 -98 -69 -5 c-41 -3 -71 -10 -73 -17 -2 -6 19 -27 47 -46 l51
-35 -103 -104 c-57 -58 -124 -120 -151 -137 l-47 -32 4 38 c3 21 8 63 11 95 5
49 20 79 110 229 117 193 141 259 111 303 -32 49 -15 40 50 -26 l65 -67 -3
-98z m-3260 211 c15 -4 22 -14 22 -30 0 -13 -5 -24 -10 -24 -31 0 -318 -33
-393 -45 -97 -15 -117 -12 -117 15 0 23 67 47 205 71 100 17 250 24 293 13z
m1805 -31 c-28 -65 -23 -221 15 -404 17 -86 38 -225 47 -310 16 -159 43 -522
40 -527 -1 -1 -15 37 -30 85 -15 48 -66 187 -114 308 -56 139 -94 252 -105
307 -19 98 -19 99 45 185 22 29 39 54 39 57 0 2 -17 7 -38 11 l-39 6 18 57
c10 31 25 82 33 113 15 53 77 149 96 149 5 0 2 -17 -7 -37z m1547 -30 c-11
-17 -11 -17 -6 0 3 10 7 26 7 35 1 15 2 15 6 0 2 -10 -1 -25 -7 -35z m-507 0
c-14 -21 -18 -47 -17 -113 0 -72 6 -99 37 -180 49 -128 50 -138 42 -235 l-7
-85 -92 133 c-51 72 -101 146 -110 164 l-16 32 42 40 c51 48 47 54 -7 11 -21
-16 -42 -30 -46 -30 -5 0 -9 18 -9 40 l0 40 53 -2 c69 -4 78 15 10 22 l-52 5
19 42 c13 29 38 56 87 92 78 57 91 62 66 24z m-699 -45 c20 -24 56 -69 81
-100 l45 -57 -35 -7 c-20 -3 -38 -11 -42 -17 -4 -6 16 -31 44 -56 l51 -46 -8
-55 c-5 -30 -8 -68 -8 -85 0 -44 27 81 28 130 0 36 -4 42 -37 60 -49 27 -51
41 -9 55 20 6 36 14 36 16 0 16 -23 44 -31 38 -6 -3 -9 0 -7 8 2 8 -14 31 -35
53 -20 21 -35 40 -32 43 7 7 174 -47 227 -74 60 -30 63 -37 38 -72 -12 -16
-26 -58 -32 -94 -10 -55 -9 -71 5 -105 15 -38 15 -42 0 -55 -9 -7 -34 -38 -56
-68 -57 -79 -95 -117 -158 -161 -59 -40 -87 -87 -70 -117 7 -12 10 -9 15 15 7
31 32 58 99 107 20 15 53 43 72 63 l35 36 25 -54 c14 -30 25 -65 25 -77 0 -56
48 -112 94 -112 8 0 21 -11 30 -25 l16 -24 -39 14 c-22 7 -51 21 -65 30 -13 9
-48 19 -78 22 -42 4 -58 2 -76 -13 -23 -19 -23 -19 47 -16 38 2 77 0 86 -5 11
-7 0 -10 -39 -11 -67 -2 -120 -22 -165 -65 -33 -31 -34 -22 -2 18 13 16 11 15
-10 -3 -17 -14 -26 -33 -26 -52 l0 -29 37 37 c46 45 134 72 240 72 l72 0 -49
-54 c-69 -76 -92 -165 -58 -230 9 -16 13 -31 11 -33 -10 -11 -223 -14 -249 -4
-47 18 -156 196 -157 255 0 40 39 205 58 241 8 17 29 47 45 68 39 48 43 98 27
305 -14 184 -24 243 -49 295 -24 49 -11 47 33 -5z m-465 -102 c-17 -65 -29
-119 -27 -121 2 -1 15 -6 30 -11 l27 -9 -34 -36 -33 -37 -6 97 c-4 53 -8 119
-11 147 l-5 50 43 21 c23 11 43 20 45 18 1 -1 -12 -55 -29 -119z m1658 102
c-3 -8 -6 -5 -6 6 -1 11 2 17 5 13 3 -3 4 -12 1 -19z m22 -38 c126 -49 147
-72 174 -195 28 -122 37 -264 37 -585 l1 -312 -31 -48 c-17 -27 -37 -54 -45
-60 -24 -20 -96 -13 -223 22 -104 29 -121 36 -108 47 45 37 58 189 23 260 -9
17 -13 31 -11 31 3 0 33 -13 67 -28 34 -16 77 -34 94 -41 36 -15 107 -87 118
-120 9 -29 23 -27 17 4 -8 43 -72 104 -137 130 -59 24 -59 24 -32 34 16 6 39
11 52 11 36 0 129 -94 164 -165 17 -33 30 -52 31 -42 1 44 -65 142 -128 190
-41 31 -24 36 31 8 20 -10 37 -15 37 -11 0 4 -20 18 -44 31 -40 21 -50 22 -95
13 -60 -12 -57 -21 -36 117 13 86 22 111 84 230 38 74 72 145 75 159 4 14 -14
-13 -38 -60 -25 -47 -57 -98 -71 -115 l-26 -30 7 55 c7 62 54 216 91 300 29
67 7 49 -37 -30 -27 -51 -29 -52 -23 -20 3 19 12 53 20 75 l13 40 -20 -25
c-34 -44 -51 -112 -60 -245 -12 -173 -42 -452 -50 -465 -4 -6 -18 -8 -32 -5
l-25 6 3 122 c3 128 0 122 -27 -44 l-10 -66 -41 11 c-30 8 -48 21 -65 48 -19
28 -34 38 -62 43 -21 3 -43 5 -50 3 -8 -2 -19 15 -27 42 -12 40 -11 48 7 89
11 25 58 84 112 140 95 98 167 180 167 190 0 4 -18 17 -40 31 -22 14 -40 28
-40 31 0 4 25 9 55 11 30 3 58 8 62 12 5 4 8 52 8 107 0 54 1 99 3 99 1 0 38
-14 81 -30z m-709 6 c0 -2 -6 -19 -14 -37 -8 -19 -19 -63 -25 -99 -18 -101
-44 -214 -52 -223 -21 -26 -39 246 -19 298 10 27 110 83 110 61z m-1140 -36
c39 -20 40 -21 41 -78 1 -89 17 -112 19 -27 l2 70 13 -50 c12 -44 27 -174 42
-360 2 -33 0 -78 -5 -100 -9 -35 -10 -29 -11 54 -1 51 -8 120 -16 153 -14 53
-76 219 -119 321 -9 20 -14 37 -11 37 3 0 24 -9 45 -20z m344 -35 c68 -35 163
-35 223 -1 l42 24 7 -55 c3 -31 7 -88 8 -128 1 -83 -7 -96 -96 -162 l-48 -34
-70 48 c-48 33 -73 57 -80 78 -21 68 -49 255 -37 255 1 0 24 -11 51 -25z
m1103 -15 c26 1 66 7 88 15 21 8 40 13 41 12 1 -1 -34 -62 -79 -135 -80 -132
-81 -132 -93 -104 -19 47 -62 175 -69 209 l-7 33 36 -15 c19 -8 57 -15 83 -15z
m-424 -265 c8 -33 18 -98 21 -145 4 -47 9 -107 12 -135 4 -50 4 -49 -24 30
-29 79 -68 165 -77 165 -2 0 7 -32 21 -72 17 -52 24 -93 24 -150 0 -78 -1 -79
-22 -73 -32 10 -45 30 -53 78 -4 23 -21 69 -37 103 l-30 61 36 51 c20 28 41
52 47 54 5 2 11 19 13 38 2 19 1 27 -1 18 -5 -22 -23 -24 -23 -3 0 23 38 178
51 210 12 28 13 22 20 -70 3 -55 13 -127 22 -160z m-2143 123 c11 -18 20 -36
20 -40 0 -5 -36 -8 -80 -8 -44 0 -80 4 -80 9 0 5 14 23 31 40 42 43 82 42 109
-1z m2297 -35 c15 -27 47 -75 71 -108 130 -182 144 -205 137 -236 l-7 -29 -77
0 c-84 0 -101 -8 -101 -51 0 -24 -5 -27 -37 -31 -21 -3 -46 -8 -55 -12 -17 -7
-18 1 -18 95 0 165 10 239 30 239 26 0 38 20 41 70 4 42 2 45 -18 42 -24 -3
-27 6 -17 46 9 33 20 27 51 -25z m-2267 -50 c0 -16 -4 -33 -8 -39 -8 -13 -256
-24 -268 -11 -4 4 37 8 92 9 l99 2 -95 5 c-77 5 -95 9 -98 23 -3 14 10 17 80
22 89 7 153 12 181 14 12 2 17 -5 17 -25z m3910 -87 c0 -2 -37 -35 -82 -74
-46 -38 -125 -109 -177 -157 l-95 -87 -99 5 c-54 3 -101 7 -103 10 -3 2 32 7
77 10 l82 5 63 63 c35 35 64 66 64 70 0 8 -173 35 -280 45 -56 5 -89 2 -129
-10 -30 -9 -55 -15 -57 -13 -1 1 2 12 7 25 9 24 97 85 110 76 5 -3 19 1 31 8
16 9 96 15 278 19 140 3 267 6 283 7 15 1 27 0 27 -2z m-2903 -63 c-3 -10 -5
-4 -5 12 0 17 2 24 5 18 2 -7 2 -21 0 -30z m-10 -55 c-3 -7 -5 -2 -5 12 0 14
2 19 5 13 2 -7 2 -19 0 -25z m-10 -40 c-3 -8 -6 -5 -6 6 -1 11 2 17 5 13 3 -3
4 -12 1 -19z m429 -442 c60 -159 68 -198 50 -239 -18 -43 -97 -148 -106 -142
-5 3 -20 40 -36 82 -15 43 -42 115 -61 161 -18 46 -38 107 -44 135 -6 29 -17
59 -25 68 -11 12 -12 34 -4 115 5 54 14 115 19 134 5 19 15 55 21 80 l12 44
65 -159 c35 -88 85 -213 109 -279z m1819 274 c7 -14 22 -72 34 -129 l23 -104
-21 -28 c-12 -16 -21 -34 -21 -40 0 -7 20 -83 45 -169 46 -163 67 -303 80
-537 l6 -113 -28 0 c-15 0 -37 -3 -49 -6 -17 -4 -27 6 -57 57 -41 69 -43 102
-6 135 19 17 19 18 -29 64 -33 32 -52 60 -61 91 -13 47 -39 192 -36 197 2 2
24 -2 49 -9 68 -17 66 -5 -4 20 -46 17 -60 27 -60 42 0 26 21 76 53 122 l26
38 -5 187 c-2 103 -6 204 -9 226 l-3 38 30 -28 c16 -16 36 -40 43 -54z m-740
59 c5 -7 -20 -8 -82 -3 -48 4 -90 8 -92 10 -2 2 34 4 82 4 50 0 89 -4 92 -11z
m-111 -68 c28 -25 147 -64 177 -58 l24 4 -23 8 c-18 6 -20 10 -11 21 12 15 37
18 63 8 9 -3 33 -35 53 -71 32 -58 35 -69 27 -102 -8 -32 -12 -36 -39 -33 -17
1 -59 3 -95 3 -64 0 -154 22 -165 39 -3 5 11 3 32 -4 21 -7 56 -16 78 -20 l40
-6 -34 15 c-18 8 -38 15 -43 15 -15 0 -140 61 -135 66 2 2 48 -9 102 -26 113
-35 174 -40 70 -6 -56 18 -188 78 -204 92 -1 1 0 7 4 13 4 7 26 1 63 -18 82
-41 123 -52 197 -54 83 -3 85 9 3 15 -73 5 -209 64 -186 80 9 6 5 8 -12 6 -17
-2 -26 2 -28 15 -5 22 16 22 42 -2z m138 -6 c3 -14 1 -25 -3 -25 -5 0 -9 11
-9 25 0 14 2 25 4 25 2 0 6 -11 8 -25z m-232 -29 c0 -9 -8 -12 -24 -9 -40 8
-39 -15 1 -33 l38 -16 -50 -16 -50 -16 40 -3 c56 -4 85 -12 85 -22 0 -4 -26
-20 -59 -35 -46 -21 -74 -26 -134 -26 -64 0 -76 3 -80 18 -3 9 -5 -8 -5 -38
-2 -122 42 -163 85 -80 13 25 21 34 17 20 -15 -56 -25 -71 -59 -87 -34 -16
-36 -16 -57 4 -29 30 -35 115 -11 165 17 35 143 173 186 203 17 12 24 12 48
-1 16 -8 29 -21 29 -28z m462 -121 c22 -63 22 -129 2 -188 -21 -61 -33 -70
-73 -56 -26 9 -35 8 -50 -5 -26 -24 -41 -20 -55 17 -16 37 -28 150 -17 142 5
-2 11 -27 13 -54 6 -58 21 -81 54 -81 47 0 106 170 85 245 -8 32 -8 36 7 33
10 -2 24 -23 34 -53z m-1572 -60 c5 -6 18 -42 30 -80 12 -39 26 -81 32 -95 6
-14 24 -63 40 -110 17 -47 50 -134 75 -195 25 -60 67 -172 94 -248 l49 -138
-48 -21 c-26 -12 -62 -22 -81 -22 -40 -1 -32 -24 -136 354 -87 319 -90 332
-74 387 10 38 10 46 -2 54 -8 5 -10 9 -5 9 4 0 1 12 -9 26 -18 28 -16 69 8
149 l12 40 3 -50 c2 -27 7 -54 12 -60z m1135 -40 c-14 -44 -25 -100 -26 -125
-1 -25 -5 -56 -9 -70 -5 -15 -8 26 -9 108 l-1 132 32 20 c18 10 33 18 35 17 1
-2 -9 -39 -22 -82z m75 60 c7 -8 30 -20 51 -27 39 -11 39 -11 39 -65 l0 -53
-67 0 c-98 0 -100 3 -74 89 22 73 30 82 51 56z m-138 -95 c11 -96 8 -231 -8
-345 -54 -398 -124 -956 -124 -1002 0 -18 -131 -15 -250 5 l-95 17 2 148 c2
229 17 348 79 612 34 146 36 150 67 165 25 12 38 29 57 76 14 33 38 82 53 108
44 73 26 65 -34 -16 -104 -141 -119 -173 -160 -338 -56 -225 -73 -360 -95
-763 -7 -135 -2 -131 -109 -91 -113 43 -112 40 -91 186 53 379 112 699 168
903 33 121 52 165 71 165 6 0 51 6 100 14 l87 13 -17 -26 c-27 -41 -107 -172
-132 -216 -42 -74 9 -1 87 122 84 134 92 140 177 128 44 -7 45 -7 59 26 7 19
19 59 26 89 17 82 17 82 47 78 26 -3 29 -7 35 -58z m-2429 -99 c30 -19 49 -44
61 -76 4 -11 -6 -4 -24 17 -40 48 -86 64 -132 45 -35 -15 -78 -60 -78 -81 0
-6 9 4 20 22 25 41 72 63 113 51 32 -9 47 -25 78 -83 36 -67 9 -184 -53 -229
-24 -18 -30 -19 -59 -7 -100 42 -60 260 48 260 31 0 26 20 -10 40 -25 14 -30
13 -65 -6 -20 -11 -36 -26 -34 -32 1 -7 -2 -12 -7 -12 -4 0 -14 -26 -20 -58
-13 -66 -3 -136 23 -178 10 -14 15 -28 12 -31 -3 -3 -14 10 -25 28 -12 19 -21
28 -21 20 0 -7 20 -33 44 -57 35 -36 50 -44 77 -43 l34 1 -30 7 c-35 9 -79 31
-72 37 2 2 17 -2 33 -11 38 -20 52 -19 98 6 l39 20 -7 -28 c-10 -40 -50 -73
-90 -73 -47 0 -108 48 -137 107 -35 71 -34 198 2 268 44 86 120 117 182 76z
m2586 -17 c57 -6 61 -8 61 -33 l0 -26 -85 3 c-47 2 -85 7 -85 10 0 4 3 17 6
30 7 24 12 25 103 16z m431 -58 c83 -25 105 -35 80 -35 -37 -1 -91 10 -180 36
-45 13 -51 17 -35 24 11 4 20 8 20 8 0 1 52 -14 115 -33z m-1758 -31 c2 -19 0
-35 -4 -35 -4 0 -8 16 -8 35 0 19 2 35 4 35 2 0 6 -16 8 -35z m1517 -5 l76
-15 8 -100 c9 -110 1 -463 -12 -538 l-8 -48 21 21 22 20 52 -238 c29 -130 52
-243 52 -251 0 -11 -35 -13 -195 -9 -107 2 -199 8 -204 13 -9 9 14 321 53 740
9 88 18 224 22 302 6 125 9 141 22 130 8 -6 49 -19 91 -27z m-1604 20 c-3 -5
-16 -10 -28 -9 -21 0 -21 1 -2 9 28 12 37 12 30 0z m610 -10 c18 -8 18 -9 -5
-8 -14 0 -36 4 -50 8 -24 8 -24 8 5 8 17 0 39 -3 50 -8z m775 -7 c0 -10 -7
-56 -15 -103 -11 -63 -14 -152 -13 -350 l2 -265 7 290 c6 262 21 421 42 441 3
3 20 3 37 -1 l32 -7 -6 -102 c-15 -219 -38 -483 -46 -516 -5 -19 -32 -100 -60
-179 -47 -134 -57 -172 -45 -159 3 2 23 52 45 109 l39 104 -5 -125 c-2 -69 -7
-158 -10 -199 l-6 -74 -106 7 c-59 4 -110 10 -113 14 -7 8 121 1041 138 1110
4 18 12 22 44 22 30 0 39 -4 39 -17z m-1715 -58 l8 -40 -36 40 c-34 38 -34 40
-14 46 29 8 34 2 42 -46z m2405 45 c0 -11 26 -193 35 -246 5 -31 5 -31 -27
-25 -31 6 -33 11 -60 101 -43 147 -43 147 -19 155 12 3 21 11 21 16 0 5 11 9
25 9 14 0 25 -5 25 -10z m-303 -20 c26 -6 75 -11 108 -13 l60 -3 32 -85 c17
-46 30 -85 28 -87 -1 -2 -37 3 -79 11 -42 8 -76 12 -76 8 4 -105 23 -259 34
-276 8 -12 29 -25 47 -29 73 -14 107 -27 113 -42 3 -9 17 -102 31 -207 13
-106 31 -227 40 -270 21 -112 20 -126 -12 -138 -36 -13 -147 -36 -198 -41
l-39 -3 -13 70 c-8 39 -29 140 -48 225 -44 195 -62 315 -74 505 -21 313 -23
385 -12 385 5 0 32 -5 58 -10z m1167 -20 c38 -14 105 -79 128 -124 26 -51 35
-151 18 -211 -41 -146 -158 -211 -277 -154 -108 52 -167 202 -130 330 18 62
70 128 119 152 37 19 104 22 142 7z m-2845 -78 c34 -127 28 -189 -45 -412 -19
-62 -34 -114 -31 -116 7 -8 87 227 103 306 17 83 14 137 -16 232 -19 60 -18
88 0 58 18 -29 60 -166 79 -261 26 -124 48 -329 61 -549 15 -277 15 -319 -1
-334 -20 -20 -119 -50 -129 -40 -10 12 -76 244 -89 318 -22 119 -9 186 46 247
19 21 31 39 26 39 -19 0 -64 -42 -83 -78 l-19 -37 -1 32 c0 17 5 35 11 38 6 4
7 14 2 24 -4 9 -10 147 -13 308 l-5 292 35 4 c19 2 38 4 41 5 4 1 16 -33 28
-76z m-913 -99 c13 -18 14 -35 3 -128 -8 -69 -17 -109 -25 -112 -7 -2 -37 2
-66 10 -29 9 -81 21 -115 28 -35 6 -63 14 -63 18 0 10 39 149 56 204 12 35 21
47 35 47 22 0 43 44 35 75 -5 19 105 -92 140 -142z m1369 125 c19 -9 25 -18
24 -42 l-1 -31 -7 28 c-3 16 -17 35 -31 42 -31 17 -21 19 15 3z m44 -222 c2
-99 -5 -78 -11 34 -3 52 -2 82 2 65 4 -16 8 -61 9 -99z m1415 74 c4 -5 14 -57
22 -117 8 -59 16 -116 18 -126 2 -10 1 -17 -2 -15 -4 2 -37 17 -73 34 l-66 32
-17 93 c-9 52 -19 104 -21 115 -5 22 -5 22 63 7 37 -8 71 -19 76 -23z m1135
-19 c1 -35 -5 -22 -12 24 -5 28 -4 34 3 20 5 -11 9 -31 9 -44z m-3413 3 c12
-29 10 -30 -72 -102 -76 -66 -86 -72 -106 -61 -13 6 -25 13 -27 15 -18 16 158
189 183 181 6 -2 15 -17 22 -33z m2381 -50 c3 -7 6 -42 6 -76 2 -61 1 -63 -24
-66 -24 -3 -27 1 -33 44 -3 26 -6 64 -6 84 0 35 2 37 26 32 14 -2 28 -11 31
-18z m405 -8 c16 -24 7 -32 -29 -29 -88 8 -103 13 -103 34 0 20 4 21 63 14 34
-4 65 -12 69 -19z m-3236 -69 c-6 -58 -26 -89 -26 -41 0 52 12 104 23 97 5 -3
7 -27 3 -56z m3864 -55 c-12 -27 -38 -65 -58 -83 l-36 -34 27 35 c16 19 39 59
53 88 32 66 43 62 14 -6z m-2563 -4 c-3 -7 -5 -2 -5 12 0 14 2 19 5 13 2 -7 2
-19 0 -25z m-1747 -2 c0 -2 -13 -6 -29 -8 -17 -2 -28 -1 -25 4 5 8 54 12 54 4z
m3309 -39 c-15 -13 -69 -34 -69 -27 0 5 12 13 28 18 28 11 49 15 41 9z m-3341
-14 c-16 -3 -30 -12 -33 -24 -4 -11 -9 -18 -12 -16 -3 3 -2 15 2 26 5 16 14
21 38 20 30 -2 30 -2 5 -6z m269 -45 c45 -16 88 -37 95 -46 12 -15 11 -16 -4
-4 -10 8 -68 31 -130 53 -62 21 -97 36 -78 33 19 -4 72 -20 117 -36z m-82 -22
c92 -30 129 -46 128 -57 -2 -12 -45 -170 -48 -176 0 -1 -78 23 -173 53 -168
54 -172 56 -171 82 2 23 2 24 6 5 4 -19 22 -28 121 -58 64 -20 137 -43 161
-51 25 -7 46 -12 48 -11 5 6 44 159 41 162 -6 6 -193 65 -225 71 -18 4 -33 10
-33 15 0 13 1 12 145 -35z m3257 -63 c21 -44 34 -89 36 -127 6 -78 -14 -67
-23 13 -4 32 -22 94 -41 137 -19 43 -34 81 -34 84 0 12 34 -46 62 -107z
m-3495 55 c-3 -8 -6 -5 -6 6 -1 11 2 17 5 13 3 -3 4 -12 1 -19z m168 -4 c70
-18 71 -19 44 -91 -10 -26 -11 -26 -59 -14 -19 5 -48 12 -64 16 -27 6 -28 8
-22 47 11 67 7 65 101 42z m-178 -36 c-3 -8 -6 -5 -6 6 -1 11 2 17 5 13 3 -3
4 -12 1 -19z m527 16 c13 -5 9 -14 -23 -50 -21 -24 -43 -58 -48 -76 -7 -22
-11 -26 -12 -13 -1 25 34 84 62 107 12 9 19 20 15 24 -14 13 -78 -7 -93 -29
-8 -13 -22 -95 -34 -202 -12 -99 -30 -227 -40 -285 -11 -58 -22 -116 -24 -130
-3 -20 -5 -18 -6 9 0 19 8 82 19 140 11 58 29 183 40 277 11 94 22 178 26 188
13 33 78 55 118 40z m3116 -28 c0 -8 2 -21 5 -28 5 -11 -4 -13 -42 -8 -59 6
-67 32 -13 41 19 4 38 7 43 8 4 0 7 -5 7 -13z m-173 -38 c-3 -8 -6 -5 -6 6 -1
11 2 17 5 13 3 -3 4 -12 1 -19z m158 -28 c4 -6 1 -41 -5 -78 -10 -56 -20 -77
-59 -126 -42 -53 -93 -88 -108 -73 -6 7 30 61 70 104 26 28 31 42 35 95 2 35
5 69 7 76 5 15 51 16 60 2z m-2001 -80 c6 -43 4 -48 -28 -79 -21 -20 -36 -29
-40 -22 -9 15 2 31 20 31 12 0 14 9 8 48 -3 26 -10 51 -15 57 -16 16 -10 34
14 37 25 3 31 -7 41 -72z m62 43 c16 -81 11 -108 -31 -156 -66 -75 -92 -52
-33 29 30 42 31 46 20 91 -9 41 -9 50 5 61 26 19 32 15 39 -25z m1816 -128
c-4 -5 -12 22 -19 60 -18 104 -14 121 7 30 10 -43 16 -84 12 -90z m-2979 69
c-17 -39 -32 -104 -48 -212 -22 -147 -61 -298 -86 -332 -9 -12 -10 -11 -4 5
36 101 59 202 81 359 15 106 33 168 62 214 24 37 22 25 -5 -34z m-233 -128
c-25 -108 -43 -144 -76 -152 -28 -7 -194 30 -234 53 -28 15 -35 17 113 -22 54
-15 106 -23 117 -20 27 9 45 46 71 149 12 48 23 85 26 83 2 -2 -6 -43 -17 -91z
m1280 -5 c0 -6 -4 -13 -10 -16 -5 -3 -10 1 -10 9 0 9 5 16 10 16 6 0 10 -4 10
-9z m916 -227 c19 -5 23 -17 34 -127 11 -109 16 -415 6 -424 -14 -15 -116 435
-116 515 0 39 2 42 28 42 15 0 37 -3 48 -6z m134 -14 c13 -8 11 -27 -13 -148
-15 -76 -27 -149 -27 -163 -1 -18 -3 -20 -9 -9 -7 13 -31 248 -31 308 0 18 5
22 33 22 17 0 39 -5 47 -10z m-828 -175 c3 -82 2 -119 -3 -90 -7 51 -12 242
-5 234 2 -2 5 -67 8 -144z m-270 49 c11 -84 9 -157 -7 -219 -18 -69 -63 -171
-71 -162 -3 3 -21 76 -40 162 -34 153 -34 159 -19 200 14 36 23 44 63 57 26 9
52 15 57 14 6 -2 13 -25 17 -52z m1025 -306 c-2 -13 -4 -3 -4 22 0 25 2 35 4
23 2 -13 2 -33 0 -45z"/>
<path d="M2540 3942 c-9 -3 4 -11 35 -19 68 -19 77 -20 82 -6 7 20 -82 39
-117 25z"/>
<path d="M2322 3928 c-8 -10 -5 -13 13 -13 18 0 21 3 13 13 -6 6 -12 12 -13
12 -1 0 -7 -6 -13 -12z"/>
<path d="M2341 3876 c-7 -8 -9 -21 -5 -27 5 -9 10 -5 16 11 10 28 5 36 -11 16z"/>
<path d="M2510 3865 c0 -8 43 -28 77 -36 56 -12 47 9 -11 25 -58 17 -66 19
-66 11z"/>
<path d="M2690 3809 c0 -9 5 -31 12 -49 9 -29 9 -35 -7 -46 -10 -8 -16 -17
-12 -20 10 -10 37 16 37 35 0 22 -29 100 -30 80z"/>
<path d="M2635 3710 c4 -6 11 -8 16 -5 14 9 11 15 -7 15 -8 0 -12 -5 -9 -10z"/>
<path d="M2601 3661 c-24 -6 -24 -7 13 -39 20 -17 43 -32 50 -32 20 0 53 32
61 58 6 21 4 22 -47 21 -29 -1 -64 -4 -77 -8z m92 -18 c-13 -2 -35 -2 -50 0
-16 2 -5 4 22 4 28 0 40 -2 28 -4z"/>
<path d="M3285 3961 c-5 -9 75 -32 84 -25 2 2 -2 10 -9 19 -14 16 -65 21 -75
6z"/>
<path d="M3484 3935 c-17 -13 -12 -14 53 -12 74 2 92 10 51 21 -40 10 -83 7
-104 -9z"/>
<path d="M3290 3875 c0 -16 61 -30 87 -20 17 6 17 7 -1 21 -22 16 -40 19 -31
5 3 -6 -6 -6 -25 -1 -23 7 -30 5 -30 -5z"/>
<path d="M3480 3861 c0 -5 13 -14 29 -21 24 -9 34 -9 60 4 17 9 31 18 31 20 0
2 -27 4 -60 5 -33 0 -60 -3 -60 -8z"/>
<path d="M3396 3803 c-6 -14 -5 -15 5 -6 7 7 10 15 7 18 -3 3 -9 -2 -12 -12z"/>
<path d="M3380 3772 c0 -20 28 -32 59 -26 40 8 41 22 1 16 -17 -2 -37 1 -45 8
-8 7 -15 8 -15 2z"/>
<path d="M3358 3714 c-10 -10 19 -62 42 -74 29 -15 63 -3 101 36 l33 34 -65 0
c-35 0 -73 3 -84 6 -11 3 -24 2 -27 -2z m117 -34 c-3 -5 -21 -10 -40 -10 -19
0 -37 5 -40 10 -4 6 12 10 40 10 28 0 44 -4 40 -10z"/>
<path d="M1233 3426 c14 -35 31 -107 43 -181 l14 -80 -5 75 c-4 67 -39 200
-52 200 -3 0 -3 -6 0 -14z"/>
<path d="M1590 3370 c-8 -5 -26 -10 -39 -10 -19 0 -22 -3 -14 -11 13 -13 50
-6 78 15 15 12 16 15 5 16 -8 0 -22 -5 -30 -10z"/>
<path d="M1495 3270 c5 -8 43 -68 86 -133 84 -127 128 -232 153 -364 23 -116
26 -125 21 -53 -6 80 -36 190 -75 276 -30 66 -152 255 -179 277 -12 10 -13 9
-6 -3z"/>
<path d="M1519 2793 c-3 -97 -7 -115 -27 -143 l-24 -31 31 -157 c29 -150 30
-153 25 -72 -3 47 -11 117 -18 157 -11 67 -11 73 8 99 24 33 34 151 18 219 -8
34 -10 24 -13 -72z"/>
<path d="M991 2594 c-30 -8 -57 -17 -60 -21 -4 -3 5 -3 19 1 63 17 175 18 214
2 47 -20 57 -20 50 -2 -14 37 -124 47 -223 20z"/>
<path d="M1768 2550 c-20 -28 -23 -57 -8 -96 17 -44 31 -14 28 57 -3 64 -3 64
-20 39z"/>
<path d="M935 2511 c-22 -10 -47 -26 -55 -36 -18 -22 -14 -21 85 15 43 16 79
21 130 20 85 -3 96 -1 70 10 -38 17 -187 11 -230 -9z"/>
<path d="M1435 1615 c37 -31 123 -61 136 -48 5 5 -19 18 -61 32 -38 12 -72 26
-75 31 -4 6 -12 10 -18 10 -7 -1 2 -12 18 -25z"/>
<path d="M1485 1511 c-8 -13 13 -55 34 -68 10 -6 56 -23 102 -37 98 -30 83
-11 -24 30 -72 27 -112 57 -102 74 4 6 4 10 1 10 -3 0 -7 -4 -11 -9z"/>
<path d="M1361 1327 c-13 -72 -14 -262 -2 -322 5 -24 6 8 3 80 -3 66 1 160 7
209 14 103 8 126 -8 33z"/>
<path d="M1965 2755 c-4 -37 -5 -69 -2 -71 2 -3 8 25 12 61 4 37 5 69 2 71 -2
3 -8 -25 -12 -61z"/>
<path d="M1952 2650 c0 -14 2 -19 5 -12 2 6 2 18 0 25 -3 6 -5 1 -5 -13z"/>
<path d="M1930 2425 c-7 -25 -26 -66 -42 -91 -16 -26 -27 -48 -24 -51 10 -10
66 88 76 132 14 62 7 69 -10 10z"/>
<path d="M1957 2393 c-14 -32 -43 -78 -64 -102 -27 -31 -32 -41 -16 -33 34 19
77 77 97 132 25 71 15 72 -17 3z"/>
<path d="M2012 2304 c-31 -30 -39 -44 -27 -44 21 0 75 53 75 74 0 20 3 22 -48
-30z"/>
<path d="M2812 2930 c0 -14 2 -19 5 -12 2 6 2 18 0 25 -3 6 -5 1 -5 -13z"/>
<path d="M2626 2604 c-14 -15 -26 -31 -26 -37 0 -6 16 4 35 23 19 19 35 35 35
37 0 10 -21 -1 -44 -23z"/>
<path d="M2662 2578 c-17 -21 -52 -117 -52 -141 1 -12 17 16 36 62 33 80 39
106 16 79z"/>
<path d="M3858 2619 c-10 -5 -18 -14 -18 -19 0 -12 107 -12 135 0 19 7 18 9
-8 19 -35 14 -86 14 -109 0z"/>
<path d="M4332 2960 c-70 -16 -61 -20 128 -50 177 -28 185 -28 236 20 l44 40
-188 -1 c-103 -1 -202 -5 -220 -9z"/>
<path d="M2271 2303 c1 -112 2 -116 14 -78 14 42 19 152 9 179 -16 41 -24 6
-23 -101z"/>
<path d="M581 2144 c0 -11 3 -14 6 -6 3 7 2 16 -1 19 -3 4 -6 -2 -5 -13z"/>
<path d="M679 2129 l-24 -21 25 16 c31 20 36 20 60 -4 40 -40 17 -130 -32
-130 -16 0 -42 25 -51 50 -4 10 -6 9 -6 -6 -1 -25 38 -64 66 -64 65 0 83 138
22 170 -25 14 -34 13 -60 -11z"/>
<path d="M573 2075 c0 -27 2 -38 4 -22 2 15 2 37 0 50 -2 12 -4 0 -4 -28z"/>
<path d="M4734 2071 c-72 -44 -109 -128 -102 -225 11 -131 90 -216 201 -216
119 0 206 158 164 300 -39 131 -167 199 -263 141z m174 -28 c57 -46 83 -101
84 -177 0 -107 -23 -150 -74 -138 -16 4 -15 7 7 34 49 58 55 149 14 216 -22
37 -74 72 -107 72 -27 0 -73 -22 -91 -44 -7 -9 -18 -13 -24 -9 -5 3 -7 2 -4
-4 4 -6 -3 -28 -14 -49 -39 -75 -10 -193 60 -240 42 -28 106 -32 152 -8 39 20
47 12 18 -15 -56 -52 -145 -51 -205 1 -94 83 -109 239 -32 333 60 72 147 84
216 28z m-29 -119 c45 -57 10 -144 -58 -144 -69 0 -103 97 -54 153 26 28 87
23 112 -9z"/>
<path d="M4175 1224 c-39 -35 -39 -36 -7 -17 19 10 38 26 43 36 13 23 10 22
-36 -19z"/>
<path d="M4170 4594 c-118 -13 -223 -23 -232 -23 -12 -1 -18 -9 -18 -26 0 -14
-4 -25 -10 -25 -6 0 -10 -118 -10 -334 0 -213 4 -337 10 -341 7 -4 10 106 10
323 0 260 3 331 13 335 7 3 117 15 243 28 l231 22 71 -23 72 -24 2 -115 2
-116 3 113 c2 61 5 112 7 112 2 0 18 -5 36 -11 l32 -12 -6 -441 c-3 -242 -9
-532 -12 -643 -4 -124 -2 -203 3 -203 11 0 23 535 23 993 0 196 3 287 11 287
6 0 19 -5 30 -10 16 -9 19 -22 19 -98 0 -48 5 -94 10 -102 7 -10 10 16 10 83
0 58 4 97 10 97 6 0 10 -46 10 -117 0 -81 3 -114 10 -107 7 7 10 57 8 129 l-3
119 -100 32 c-55 18 -133 42 -172 54 -56 17 -73 26 -73 40 0 10 -6 20 -12 22
-7 2 -110 -6 -228 -18z m220 -8 c0 -10 -18 -16 -57 -20 -270 -28 -351 -37
-370 -41 -18 -4 -23 -1 -23 14 0 16 9 20 63 26 34 3 116 12 182 19 168 19 205
19 205 2z"/>
<path d="M4402 4454 l-2 -61 -46 -7 c-26 -3 -62 -6 -80 -6 -19 0 -34 -4 -34
-8 0 -4 26 -5 58 -1 89 11 102 10 102 -6 0 -11 -11 -15 -42 -15 -24 0 -60 -3
-80 -6 l-38 -7 2 -141 c2 -108 3 -120 5 -50 l4 92 31 6 c17 3 50 6 74 6 l44 0
2 -232 c2 -128 1 -277 0 -330 -3 -66 0 -98 7 -98 8 0 11 92 10 308 -2 293 -13
684 -17 556z m-2 -149 c0 -40 -2 -42 -87 -48 l-63 -5 0 38 c0 38 1 39 43 43
111 10 107 11 107 -28z"/>
<path d="M4155 4474 c-66 -7 -139 -15 -162 -19 l-43 -6 1 -182 c2 -192 14
-499 17 -409 l2 52 60 0 60 0 2 -52 c1 -29 4 37 8 147 8 268 3 367 -19 361 -9
-2 -37 -7 -63 -11 l-48 -6 0 45 0 45 43 5 c23 4 119 15 212 25 97 10 144 18
110 18 -33 0 -114 -5 -180 -13z m-65 -174 l0 -50 -60 0 -60 0 0 44 c0 43 1 45
33 49 89 11 87 12 87 -43z m0 -115 l0 -55 -37 0 c-21 0 -48 -3 -60 -6 -22 -6
-23 -4 -23 49 0 62 2 64 78 66 l42 1 0 -55z m0 -80 c0 -11 -13 -15 -47 -17
l-48 -2 48 -3 47 -4 0 -80 0 -79 -60 0 -60 0 0 94 0 95 28 4 c63 10 92 7 92
-8z"/>
<path d="M1765 4240 l-40 -19 47 5 c26 4 63 1 83 -6 39 -13 67 -2 43 17 -27
22 -91 24 -133 3z"/>
<path d="M4291 4138 c0 -49 2 -88 7 -88 4 0 6 28 4 62 -5 107 -9 117 -11 26z"/>
<path d="M4353 4140 c0 -41 2 -58 4 -37 2 20 2 54 0 75 -2 20 -4 3 -4 -38z"/>
<path d="M4680 3997 c0 -107 -2 -310 -4 -453 -3 -177 -2 -226 4 -154 4 58 8
257 9 443 l1 337 25 0 25 0 0 -354 0 -355 -22 -4 c-13 -3 3 -5 35 -4 l57 2 0
-60 0 -60 -62 -58 c-66 -62 -55 -59 28 7 l49 39 0 66 0 66 48 3 47 3 0 -57 c0
-103 12 -48 19 83 l6 128 52 3 52 3 4 -93 c3 -88 3 -86 5 30 l2 122 30 0 c17
0 30 5 30 11 0 6 -16 9 -37 7 -33 -3 -38 -7 -41 -29 -3 -29 -23 -39 -79 -39
l-33 0 0 -75 c0 -72 -1 -75 -24 -75 -12 0 -51 -3 -85 -6 l-61 -7 0 355 0 356
-31 6 c-17 3 -35 6 -40 6 -5 0 -9 -87 -9 -193z"/>
<path d="M1760 4160 c0 -17 44 -40 77 -40 23 0 33 5 33 15 0 10 -10 15 -29 15
-16 0 -41 4 -55 10 -16 6 -26 6 -26 0z"/>
<path d="M1885 4040 c-10 -16 4 -30 30 -30 13 0 26 -6 28 -12 4 -10 6 -10 6 0
1 6 7 12 15 12 8 0 17 4 20 9 3 4 -17 7 -45 4 -43 -3 -50 -1 -45 12 6 17 0 20
-9 5z"/>
<path d="M4290 3860 c0 -139 0 -140 23 -139 16 1 18 2 5 6 -16 4 -18 19 -18
134 l0 129 26 0 25 0 -3 -135 c-2 -74 0 -135 5 -135 4 0 7 63 7 140 l0 140
-35 0 -35 0 0 -140z"/>
<path d="M3960 3791 c14 -4 61 -4 105 -1 l80 7 -105 0 c-58 1 -94 -2 -80 -6z"/>
<path d="M4092 3548 l2 -143 3 133 4 132 49 0 50 0 0 -135 0 -135 -25 0 -25 0
0 -124 c0 -67 3 -152 8 -187 6 -52 8 -31 12 116 l5 181 43 -9 42 -8 0 -124 c0
-89 -3 -125 -12 -128 -26 -11 20 -7 157 14 106 16 210 22 428 26 l287 6 0 38
c0 36 -2 39 -29 39 -17 0 -33 5 -36 10 -4 6 8 10 29 10 l36 0 0 55 c0 49 -2
55 -21 55 -20 0 -21 -4 -15 -50 l7 -50 -31 0 c-16 0 -30 5 -30 10 0 25 43 92
65 102 44 20 29 33 -31 29 -38 -2 -52 -6 -43 -12 8 -5 23 -9 34 -10 11 0 14
-3 7 -6 -7 -3 -22 -22 -32 -44 -20 -39 -21 -39 -83 -40 -91 0 -127 -16 -162
-70 l-29 -46 -115 -7 c-64 -3 -139 -9 -168 -13 l-53 -6 0 210 0 209 -95 -4
c-91 -4 -95 -4 -95 17 0 11 -4 21 -10 21 -5 0 -10 18 -10 40 l0 40 -60 0 -60
0 2 -142z m318 -43 l0 -55 -95 0 -95 0 0 55 0 55 95 0 95 0 0 -55z m-2 -211
l3 -141 -46 -6 c-25 -4 -56 -9 -70 -13 l-25 -6 7 121 6 122 -31 11 c-19 8 -32
19 -32 30 0 18 45 26 140 24 l45 -1 3 -141z m612 -32 c0 -11 10 -27 21 -38 21
-19 21 -19 -32 -26 -30 -3 -93 -6 -141 -7 l-87 -1 20 34 c25 43 55 54 147 55
64 1 72 -1 72 -17z"/>
<path d="M305 3402 c-86 -35 -136 -65 -304 -189 -2 -2 -2 -5 1 -8 3 -3 43 22
89 55 46 33 134 85 194 115 121 60 128 69 20 27z"/>
<path d="M693 3403 c26 -2 67 -2 90 0 23 2 2 3 -48 3 -49 0 -68 -1 -42 -3z"/>
<path d="M415 3389 c-40 -6 -97 -22 -134 -39 -64 -30 -246 -155 -272 -187 -8
-9 33 18 90 61 168 125 208 140 415 161 120 12 125 13 51 13 -44 0 -111 -5
-150 -9z"/>
<path d="M621 3364 c0 -11 3 -14 6 -6 3 7 2 16 -1 19 -3 4 -6 -2 -5 -13z"/>
<path d="M376 3349 c-69 -11 -155 -56 -273 -145 l-103 -75 0 -91 0 -91 114 7
c230 14 388 33 396 46 4 7 22 81 40 164 18 83 34 161 37 174 5 22 3 22 -78 21
-46 -1 -106 -5 -133 -10z m154 -203 c0 -20 -22 -26 -93 -26 -34 -1 -134 -7
-222 -14 -88 -8 -161 -12 -163 -11 -2 2 14 13 35 26 31 19 56 24 148 30 213
12 295 10 295 -5z m-239 -111 c4 -22 6 -41 5 -42 0 -1 -35 -5 -77 -10 l-75 -9
40 54 c35 46 43 53 70 50 27 -3 31 -7 37 -43z"/>
<path d="M4214 3235 c0 -60 1 -84 3 -52 2 32 2 81 0 110 -2 29 -3 3 -3 -58z"/>
<path d="M612 3300 c0 -14 2 -19 5 -12 2 6 2 18 0 25 -3 6 -5 1 -5 -13z"/>
<path d="M602 3250 c0 -14 2 -19 5 -12 2 6 2 18 0 25 -3 6 -5 1 -5 -13z"/>
<path d="M592 3200 c0 -14 2 -19 5 -12 2 6 2 18 0 25 -3 6 -5 1 -5 -13z"/>
<path d="M581 3154 c0 -11 3 -14 6 -6 3 7 2 16 -1 19 -3 4 -6 -2 -5 -13z"/>
<path d="M571 3104 c0 -11 3 -14 6 -6 3 7 2 16 -1 19 -3 4 -6 -2 -5 -13z"/>
<path d="M562 3060 c0 -14 2 -19 5 -12 2 6 2 18 0 25 -3 6 -5 1 -5 -13z"/>
<path d="M5035 3028 c-57 -21 -110 -61 -200 -152 -103 -104 -136 -155 -116
-180 11 -14 43 -16 207 -16 174 0 194 2 194 17 0 15 -18 16 -190 10 -112 -3
-192 -2 -195 4 -4 5 55 9 143 9 82 0 170 3 196 6 l46 7 0 153 0 154 -27 -1
c-16 0 -41 -5 -58 -11z"/>
<path d="M663 2853 c-16 -6 -17 -65 -1 -81 15 -15 102 -16 129 -2 22 12 26 59
7 78 -12 12 -110 16 -135 5z m127 -17 c0 -15 -42 -26 -96 -26 -22 0 -34 5 -34
13 0 23 11 27 72 27 42 0 58 -4 58 -14z"/>
<path d="M367 2843 c-15 -15 -4 -18 50 -15 80 5 93 22 17 22 -34 0 -64 -3 -67
-7z"/>
<path d="M507 2486 c-14 -36 -59 -45 -285 -52 -124 -4 -222 -11 -222 -16 0
-11 390 0 440 13 36 9 80 42 80 59 0 15 -7 12 -13 -4z"/>
<path d="M5103 2393 c-7 -16 -28 -53 -48 -84 l-35 -56 -48 24 c-133 66 -289
42 -411 -63 -46 -40 -131 -148 -131 -167 0 -7 12 6 26 28 15 22 47 62 73 88
99 105 186 143 307 135 89 -6 153 -39 229 -119 30 -32 55 -52 55 -44 0 7 -22
36 -48 64 -38 40 -46 54 -36 62 19 16 86 138 82 149 -2 6 -9 -2 -15 -17z"/>
<path d="M0 2315 l0 -24 180 -3 c99 -2 180 -1 180 2 0 3 3 15 6 28 l6 22 -186
0 -186 0 0 -25z"/>
<path d="M334 2250 c-5 -5 -84 -11 -174 -13 l-165 -3 172 -2 c113 -1 174 2
178 9 9 14 1 21 -11 9z"/>
<path d="M3856 791 c6 -7 128 -23 275 -37 145 -13 347 -34 449 -44 216 -23
217 -23 204 -10 -17 17 -321 54 -654 80 -74 5 -169 13 -210 16 -55 4 -72 3
-64 -5z"/>
<path d="M2837 161 c-4 -29 -17 -77 -28 -105 -23 -61 -22 -56 -5 -56 19 0 48
113 44 170 l-3 45 -8 -54z"/>
<path d="M3325 98 c4 -13 11 -27 16 -33 5 -5 4 5 -2 23 -12 36 -24 44 -14 10z"/>
</g>
</svg>